<svg xmlns="http://www.w3.org/2000/svg" viewBox="0 0 282.64 265.74"><defs><style>.cls-1{fill:#b0e3f7;opacity:0.53;isolation:isolate;}</style></defs><title>Asset 1</title><g id="Layer_2" data-name="Layer 2"><g id="Layer_1-2" data-name="Layer 1"><g id="Layer_2-2" data-name="Layer 2"><g id="OBJECTS"><path class="cls-1" d="M210.25,247.8c-11.5,6.76-23.57,12.82-36.55,15.84a85.29,85.29,0,0,1-59.09-8A87.57,87.57,0,0,1,75,211c-6.65-16.9-8-35.72-16.25-51.91-6.37-12.52-16.45-22.68-26.38-32.63S12.4,106.38,6,93.86s-8.55-28-2.19-40.53C12.52,36.17,33.88,29.72,53.11,29s39,2.24,57.39-3.38c20.66-6.29,37.78-23,59.26-25.31,14.63-1.6,29.08,3.85,42.25,10.41a243.3,243.3,0,0,1,26.05,15.06c12.12,4.86,35.75,30,36.5,33.61h0a67.85,67.85,0,0,1,8,35.32c-.87,15-6.54,29.32-9,44.16-2.51,15.2-1.62,31-5.76,45.79C259.9,212.77,235.43,233,210.25,247.8Z"/></g></g></g></g></svg>