<svg xmlns="http://www.w3.org/2000/svg" viewBox="0 0 282.65 265.72"><defs><style>.cls-1{fill:#eec9c3;opacity:0.53;isolation:isolate;}</style></defs><title>Asset 1</title><g id="Layer_2" data-name="Layer 2"><g id="Layer_1-2" data-name="Layer 1"><g id="Layer_2-2" data-name="Layer 2"><g id="Layer_1-2-2" data-name="Layer 1-2"><g id="Layer_2-2-2" data-name="Layer 2-2"><g id="OBJECTS"><path class="cls-1" d="M14.84,184.63C10.7,169.84,11.59,154,9.08,138.84,6.62,124,1,109.68.08,94.68a67.75,67.75,0,0,1,8-35.32h0c.75-3.61,24.38-28.75,36.5-33.61A243.3,243.3,0,0,1,70.63,10.69C83.8,4.13,98.25-1.32,112.88.28c21.48,2.31,38.6,19,59.26,25.31,18.39,5.62,38.16,2.66,57.39,3.38s40.59,7.17,49.3,24.33c6.36,12.53,4.21,28-2.19,40.53s-16.44,22.65-26.37,32.6-20,20.11-26.38,32.63c-8.25,16.19-9.6,35-16.25,51.91A87.57,87.57,0,0,1,168,255.61a85.3,85.3,0,0,1-59.09,8c-13-3-25-9.08-36.55-15.84C47.21,233,22.74,212.74,14.84,184.63Z"/></g></g></g></g></g></g></svg>