<svg xmlns="http://www.w3.org/2000/svg" viewBox="0 0 282.65 265.72"><defs><style>.cls-1{fill:#b475f2;opacity:0.53;isolation:isolate;}</style></defs><title>Asset 4</title><g id="Layer_2" data-name="Layer 2"><g id="Layer_1-2" data-name="Layer 1"><g id="Layer_2-2" data-name="Layer 2"><g id="Layer_1-2-2" data-name="Layer 1-2"><g id="Layer_2-2-2" data-name="Layer 2-2"><g id="OBJECTS"><path class="cls-1" d="M210.27,247.77c-11.5,6.76-23.57,12.82-36.55,15.84a85.28,85.28,0,0,1-59.09-8A87.53,87.53,0,0,1,75,211c-6.65-16.9-8-35.72-16.25-51.91-6.37-12.52-16.45-22.68-26.38-32.63S12.42,106.35,6,93.83s-8.55-28-2.19-40.53C12.54,36.14,33.9,29.69,53.13,29s39,2.24,57.39-3.38c20.66-6.29,37.78-23,59.26-25.31,14.63-1.6,29.08,3.85,42.25,10.41a245.27,245.27,0,0,1,26.05,15.06c12.12,4.86,35.75,30,36.5,33.61h0a68,68,0,0,1,8,35.32c-.87,15-6.54,29.32-9,44.16-2.51,15.2-1.62,31-5.76,45.79C259.92,212.74,235.45,233,210.27,247.77Z"/></g></g></g></g></g></g></svg>