<svg xmlns="http://www.w3.org/2000/svg" xmlns:xlink="http://www.w3.org/1999/xlink" viewBox="0 0 433.06 433.06"><defs><style>.cls-1{fill:none;}.cls-2,.cls-43{fill:#e7b59d;}.cls-3{fill:#9f71ac;}.cls-4,.cls-52{fill:#e6b851;}.cls-5,.cls-58{fill:#a072ae;}.cls-24,.cls-6{fill:#4375f1;}.cls-26,.cls-7{fill:#e2b187;}.cls-8{fill:#edba8f;}.cls-9{fill:#dc466f;}.cls-10,.cls-38{fill:#838bc0;}.cls-11{fill:#819fde;}.cls-12{isolation:isolate;}.cls-13,.cls-21{fill:#becbfc;}.cls-14{opacity:0.38;}.cls-15{opacity:0.18;}.cls-16{clip-path:url(#clip-path);}.cls-17,.cls-21{opacity:0.8;}.cls-18{fill:#4375fa;}.cls-19{clip-path:url(#clip-path-2);}.cls-20{clip-path:url(#clip-path-3);}.cls-22{clip-path:url(#clip-path-4);}.cls-23{fill:#507cc7;opacity:0.4;}.cls-23,.cls-24,.cls-26,.cls-28,.cls-30,.cls-38,.cls-43,.cls-50,.cls-52,.cls-58{mix-blend-mode:multiply;}.cls-24{opacity:0.5;}.cls-25{clip-path:url(#clip-path-5);}.cls-26,.cls-30{opacity:0.31;}.cls-27{clip-path:url(#clip-path-6);}.cls-28{fill:#af703f;opacity:0.28;}.cls-29{clip-path:url(#clip-path-7);}.cls-30{fill:#a172ae;}.cls-31{clip-path:url(#clip-path-8);}.cls-32{fill:#43464a;}.cls-33{fill:#c22373;}.cls-34{fill:#fff;}.cls-35{fill:#e79d90;}.cls-36{fill:#cbcfd6;}.cls-37{clip-path:url(#clip-path-9);}.cls-38{opacity:0.61;}.cls-39{clip-path:url(#clip-path-10);}.cls-40{fill:#cdbdf9;}.cls-41{fill:#6daaa3;}.cls-42{clip-path:url(#clip-path-11);}.cls-43{opacity:0.45;}.cls-44{fill:#2e5271;}.cls-45{fill:#61002f;}.cls-46{fill:#effdff;}.cls-47{fill:#e19f9d;}.cls-48{fill:#9a6253;}.cls-49{clip-path:url(#clip-path-12);}.cls-50{fill:#606060;}.cls-50,.cls-52{opacity:0.22;}.cls-51{clip-path:url(#clip-path-13);}.cls-53{clip-path:url(#clip-path-14);}.cls-54{fill:#7cbfb9;}.cls-55{clip-path:url(#clip-path-15);}.cls-56{fill:#f9ca45;}.cls-57{clip-path:url(#clip-path-16);}.cls-58{opacity:0.52;}.cls-59{clip-path:url(#clip-path-17);}.cls-60{clip-path:url(#clip-path-18);}.cls-61{fill:#e2a29d;}</style><clipPath id="clip-path"><circle class="cls-1" cx="203.82" cy="63.04" r="10.83" transform="translate(95.43 246.8) rotate(-76.65)"/></clipPath><clipPath id="clip-path-2"><circle class="cls-1" cx="120.01" cy="359.19" r="16.48"/></clipPath><clipPath id="clip-path-3"><circle class="cls-1" cx="383.67" cy="176.51" r="12.24" transform="translate(147.77 526.81) rotate(-80.75)"/></clipPath><clipPath id="clip-path-4"><path class="cls-6" d="M321.23,249.83c-8.1-19.79-17.32-23.5-17.32-23.5s.29-.39.75-1.08a20.25,20.25,0,0,1,9,8,.25.25,0,0,0,.43-.25,20.76,20.76,0,0,0-9.2-8.2c.2-.3.42-.65.66-1a34.13,34.13,0,0,1,8.23,3c.28.14.54-.29.25-.43a34.6,34.6,0,0,0-8.21-3c5-8.25,15.79-31-15.77-33.56a18.21,18.21,0,0,1,7.41-4.46c.3-.1.17-.58-.13-.47a18.84,18.84,0,0,0-7.43,4.37,25.72,25.72,0,0,1,1.3-4.07c.12-.3-.36-.43-.48-.13a24.51,24.51,0,0,0-1.38,4.46c-.49-.47-1.61-1.49-3.22-2.77a26.4,26.4,0,0,0-2.88-3.55c-5.38-5.54-12.94-7.4-20.47-6.67a.26.26,0,0,0-.23.18,20.15,20.15,0,0,0-13.42,4.86c-5.29,4.41-6,11.18-4.69,17.69.08,1,.26,2,.37,2.7a37.7,37.7,0,0,0,5.52,13.64c-3.23.55-9.05,2.49-7.84,9.42,1.66,9.49,9.46,21.45.22,22.69s-13.71,22.43,19,42.2,63.89,1.05,51-14.61C312.76,275.28,329.34,269.63,321.23,249.83Zm-75.54-46.24a35,35,0,0,0,6.71,11.78,14.38,14.38,0,0,0-1.5.13A39.92,39.92,0,0,1,245.69,203.59Zm37.44-19.86c.57.6,1.12,1.25,1.65,1.93-4.56-3.42-11.81-7.88-19.55-8.8C271.91,176.72,278.39,178.73,283.13,183.73Z"/></clipPath><clipPath id="clip-path-5"><path class="cls-7" d="M263,244.54l-3-5.28s-8.62.85-11.75,4.5-23,40-23,40-8.6,4.08-15.68,7.56a11.75,11.75,0,0,1,4.95,7c6.21-2.24,14.34-5.67,17.28-7.77,0,0,19.17-14.68,21.26-24.6S263,244.54,263,244.54Z"/></clipPath><clipPath id="clip-path-6"><path class="cls-8" d="M268.33,226.3s1.57,5.74-5.22,12.52l-3.65,6.78,7.83,8.87,7.82,2.61,16.7-19.3-7.3-4.7-2.09-21.39Z"/></clipPath><clipPath id="clip-path-7"><path class="cls-9" d="M265.75,235.68s3.1,8.88,18.76-2.6c0,0,9.75,5.21,12.42,6.84,5.94,3.63,7.2,3,8.77,8.76l-13.89,46,4.7,18.27L246.4,313l4.44-20.3a16.6,16.6,0,0,0-5.15-13.52c-7.16-6.93,2.45-18.39,10-39.26C256.31,238.19,265.75,235.68,265.75,235.68Z"/></clipPath><clipPath id="clip-path-8"><path class="cls-8" d="M271.2,186.8s-14.52,10.88-12.61,27.64c.88,7.65,2.61,10.05,5.68,12.28,3.63,2.64,15.72,1,18.88-5.1l1.67-4.94s3,2.65,5.94-1.3,2.35-10.22-1.95-7.27l2.67-7.91-2.61-6.94Z"/></clipPath><clipPath id="clip-path-9"><path class="cls-10" d="M120,236l1.94,56.51a6.5,6.5,0,0,0,6.5,6.29h81.27a6.5,6.5,0,0,0,6.5-6.73l-1.93-56.52a6.51,6.51,0,0,0-6.51-6.28H126.48A6.5,6.5,0,0,0,120,236Z"/></clipPath><clipPath id="clip-path-10"><circle class="cls-11" cx="102.44" cy="140.18" r="68.66" transform="translate(-40.82 238.26) rotate(-88.24)"/></clipPath><clipPath id="clip-path-11"><path class="cls-2" d="M93.71,130.1,93,146l14.69,9.75a1,1,0,0,0,1.47-.63l2.42-12.93L97.29,124.73Z"/></clipPath><clipPath id="clip-path-12"><path class="cls-3" d="M256.93,71.44H379.76a3.89,3.89,0,0,1,3.89,3.89v31a3.9,3.9,0,0,1-1.71,3.22l-19.65,13.27a1.31,1.31,0,0,1-2-1.46l3.93-13H256.93a3.88,3.88,0,0,1-3.88-3.88V75.33A3.89,3.89,0,0,1,256.93,71.44Z"/></clipPath><clipPath id="clip-path-13"><path class="cls-4" d="M341.78,114.71H208.14a4.23,4.23,0,0,0-4.23,4.23v33.71a4.25,4.25,0,0,0,1.86,3.51l21.37,14.44A1.42,1.42,0,0,0,229.3,169L225,154.9H341.78a4.22,4.22,0,0,0,4.22-4.23V118.94A4.22,4.22,0,0,0,341.78,114.71Z"/></clipPath><clipPath id="clip-path-14"><circle class="cls-1" cx="340.83" cy="350.72" r="56.97" transform="translate(-148.17 343.72) rotate(-45)"/></clipPath><clipPath id="clip-path-15"><path class="cls-2" d="M345.66,356.82c-4.32,9.92-12,18.06-17.8,10.17-4.36-5.87-.95-13.87,1.07-17.56a76.21,76.21,0,0,1,12.3-2.78H347s3.44,0,7.73.27A20.78,20.78,0,0,0,345.66,356.82Z"/></clipPath><clipPath id="clip-path-16"><path class="cls-5" d="M344.64,304.43s-4.07-5.85-14-1.27-22.39,27-6.87,46.79c0,0,3.3-4.83,15.26-6.1S344.64,304.43,344.64,304.43Z"/></clipPath><clipPath id="clip-path-17"><path class="cls-2" d="M348.23,331.94l.62,14.71-13.6,9a.89.89,0,0,1-1.36-.58l-2.24-12L344.91,327Z"/></clipPath><clipPath id="clip-path-18"><path class="cls-2" d="M320.48,330.88a68.91,68.91,0,0,1,2.89-12.66c.12-.55,1.35-6.23,3.72-7.42s12.85,2.07,12.85,3.32c0,1,.53,8,4.07,11a5.57,5.57,0,0,0,3.39,1.4,7.15,7.15,0,0,1,5.39,3.06,72.75,72.75,0,0,1-7.46.26c-3.23,18.3-15.24,16.26-18.74,15.76S320,338.05,320.48,330.88Z"/></clipPath></defs><title>Asset 1</title><g class="cls-12"><g id="Layer_2" data-name="Layer 2"><g id="OBJECTS"><path class="cls-13" d="M216.53,370.12a153.61,153.61,0,1,1,108.6-45A152.59,152.59,0,0,1,216.53,370.12Zm0-306.75a153.16,153.16,0,1,0,108.3,44.86A152.15,152.15,0,0,0,216.53,63.37Z"/><path class="cls-13" d="M216.53,388.4a171.91,171.91,0,0,1-66.9-330.23,171.91,171.91,0,0,1,133.8,316.72A170.67,170.67,0,0,1,216.53,388.4Zm0-343.26a171.43,171.43,0,0,0-66.71,329.31A171.43,171.43,0,0,0,283.24,58.61,170.25,170.25,0,0,0,216.53,45.14Z"/><path class="cls-13" d="M216.53,338a121.06,121.06,0,1,1,47.27-9.54A120.73,120.73,0,0,1,216.53,338Zm0-242.53A120.74,120.74,0,1,0,263.67,105,120.44,120.44,0,0,0,216.53,95.43Z"/><g class="cls-14"><path class="cls-13" d="M216.53,410A193.52,193.52,0,0,1,141.22,38.26,193.52,193.52,0,0,1,291.84,394.8,192.23,192.23,0,0,1,216.53,410Zm0-386.4a193,193,0,0,0-75.1,370.7A193,193,0,0,0,291.63,38.76,191.74,191.74,0,0,0,216.53,23.6Z"/></g><g class="cls-15"><path class="cls-13" d="M216.53,433.06A216.47,216.47,0,0,1,63.42,63.42,216.53,216.53,0,1,1,300.81,416,215.17,215.17,0,0,1,216.53,433.06Zm0-432.45a216,216,0,0,0-84.05,414.88A216,216,0,0,0,300.58,17.57,214.56,214.56,0,0,0,216.53.61Z"/></g><path class="cls-13" d="M216.53,416.44A200,200,0,0,1,138.72,32.33a200,200,0,0,1,155.62,368.4A198.51,198.51,0,0,1,216.53,416.44Zm0-399.26a199.41,199.41,0,0,0-77.6,383A199.41,199.41,0,0,0,294.13,32.84,198.23,198.23,0,0,0,216.53,17.18Z"/><g class="cls-16"><g class="cls-17"><circle class="cls-13" cx="203.82" cy="63.04" r="14.63" transform="translate(96.53 247.45) rotate(-77)"/></g><path class="cls-18" d="M203.82,77.54h0Z"/><path class="cls-11" d="M212.33,73.16c-.13-2.77-1.81-4.58-3-4.45a23,23,0,0,1-3.87-.26,3.18,3.18,0,0,1-.17-1.56,6.43,6.43,0,0,0,2.41-4.78,1.2,1.2,0,0,0,.72-.86c.17-.57,0-1.11-.29-1.21a.42.42,0,0,0-.37.07c0-3-.09-5.26-4-5.26-3.67,0-3.94,2.25-4,5.2a.45.45,0,0,0-.34-.12c-.34,0-.56.56-.49,1.15s.41,1,.75,1a.25.25,0,0,0,.12,0,6.64,6.64,0,0,0,2.27,4.76,3.23,3.23,0,0,1-.16,1.66,22.93,22.93,0,0,1-3.87.26c-1.16-.13-2.83,1.68-3,4.45s7.78,4.22,8.57,4.37C204.54,77.38,212.45,75.79,212.33,73.16Z"/></g><g class="cls-19"><g class="cls-17"><circle class="cls-13" cx="120.01" cy="359.19" r="22.27"/></g><path class="cls-18" d="M120,381.26l-.1,0-.1,0Z"/><path class="cls-11" d="M133,374.59c-.2-4.22-2.75-7-4.51-6.77a34.94,34.94,0,0,1-5.89-.39,4.85,4.85,0,0,1-.26-2.37c1.91-1.24,3.33-4,3.66-7.28a1.81,1.81,0,0,0,1.1-1.31c.26-.87.06-1.69-.44-1.84a.67.67,0,0,0-.57.1c0-4.53-.12-8-6-8-5.59,0-6,3.42-6,7.91a.7.7,0,0,0-.51-.18c-.53.07-.86.85-.75,1.74s.62,1.58,1.14,1.52a.7.7,0,0,0,.19-.06c.3,3.23,1.63,5.93,3.45,7.24a5,5,0,0,1-.25,2.53,34.89,34.89,0,0,1-5.88.39c-1.77-.19-4.32,2.55-4.51,6.77-.19,4,11.84,6.42,13,6.65C121.12,381,133.14,378.6,133,374.59Z"/></g><g class="cls-20"><g class="cls-17"><circle class="cls-13" cx="383.67" cy="176.51" r="16.54" transform="translate(141.76 522.69) rotate(-79.76)"/></g><path class="cls-18" d="M383.67,192.9h0Z"/><path class="cls-11" d="M393.29,188c-.14-3.13-2-5.17-3.35-5a25.76,25.76,0,0,1-4.37-.29,3.63,3.63,0,0,1-.2-1.76,7.32,7.32,0,0,0,2.73-5.41,1.35,1.35,0,0,0,.81-1c.19-.65,0-1.26-.32-1.37a.52.52,0,0,0-.43.08c0-3.37-.09-5.94-4.48-5.94-4.15,0-4.46,2.53-4.48,5.87a.48.48,0,0,0-.38-.13c-.39,0-.64.62-.56,1.29s.46,1.17.85,1.12a.33.33,0,0,0,.14,0,7.52,7.52,0,0,0,2.57,5.38,3.76,3.76,0,0,1-.19,1.88,25.76,25.76,0,0,1-4.37.29c-1.31-.14-3.2,1.9-3.35,5s8.8,4.77,9.69,4.94C384.5,192.72,393.43,190.93,393.29,188Z"/></g><path class="cls-11" d="M61.63,278.68a5.18,5.18,0,1,1-5.18-5.18A5.18,5.18,0,0,1,61.63,278.68Z"/><path class="cls-11" d="M393.56,229.24a5.18,5.18,0,1,1-5.18-5.18A5.18,5.18,0,0,1,393.56,229.24Z"/><path class="cls-11" d="M266.61,53.76a3.23,3.23,0,1,1-.51-4.55A3.24,3.24,0,0,1,266.61,53.76Z"/><path class="cls-11" d="M249.85,366.18a3.23,3.23,0,1,1-3.73-2.64A3.23,3.23,0,0,1,249.85,366.18Z"/><path class="cls-11" d="M192.41,413.73a3.23,3.23,0,1,1-3.74-2.64A3.23,3.23,0,0,1,192.41,413.73Z"/><path class="cls-11" d="M416.05,253.18a3.23,3.23,0,1,1-3.73-2.64A3.23,3.23,0,0,1,416.05,253.18Z"/><path class="cls-11" d="M89.77,62.49A3.24,3.24,0,1,1,86,59.85,3.25,3.25,0,0,1,89.77,62.49Z"/><path class="cls-21" d="M358.64,220.74a140,140,0,1,0-248.1,88.86H326.81A139.36,139.36,0,0,0,358.64,220.74Z"/><path class="cls-6" d="M321.23,249.83c-8.1-19.79-17.32-23.5-17.32-23.5s.29-.39.75-1.08a20.25,20.25,0,0,1,9,8,.25.25,0,0,0,.43-.25,20.76,20.76,0,0,0-9.2-8.2c.2-.3.42-.65.66-1a34.13,34.13,0,0,1,8.23,3c.28.14.54-.29.25-.43a34.6,34.6,0,0,0-8.21-3c5-8.25,15.79-31-15.77-33.56a18.21,18.21,0,0,1,7.41-4.46c.3-.1.17-.58-.13-.47a18.84,18.84,0,0,0-7.43,4.37,25.72,25.72,0,0,1,1.3-4.07c.12-.3-.36-.43-.48-.13a24.51,24.51,0,0,0-1.38,4.46c-.49-.47-1.61-1.49-3.22-2.77a26.4,26.4,0,0,0-2.88-3.55c-5.38-5.54-12.94-7.4-20.47-6.67a.26.26,0,0,0-.23.18,20.15,20.15,0,0,0-13.42,4.86c-5.29,4.41-6,11.18-4.69,17.69.08,1,.26,2,.37,2.7a37.7,37.7,0,0,0,5.52,13.64c-3.23.55-9.05,2.49-7.84,9.42,1.66,9.49,9.46,21.45.22,22.69s-13.71,22.43,19,42.2,63.89,1.05,51-14.61C312.76,275.28,329.34,269.63,321.23,249.83Zm-75.54-46.24a35,35,0,0,0,6.71,11.78,14.38,14.38,0,0,0-1.5.13A39.92,39.92,0,0,1,245.69,203.59Zm37.44-19.86c.57.6,1.12,1.25,1.65,1.93-4.56-3.42-11.81-7.88-19.55-8.8C271.91,176.72,278.39,178.73,283.13,183.73Z"/><g class="cls-22"><path class="cls-23" d="M289.9,216.35s-3.58,1.82-4.38,3.46.85,11.86.85,11.86l20.79,16.5s5.61,42.89-8.25,54.44-65-40.59-65-40.59l14.52-18.47L262,239.26l2.31-9.9s-14.51-6.87-2.8-30.49h0l28.43,17.48"/><path class="cls-24" d="M263.61,195l-7.26-1.32s2.64,4,9.9,2.31-2.64-1-2.64-1"/></g><path class="cls-7" d="M263,244.54l-3-5.28s-8.62.85-11.75,4.5-23,40-23,40-8.6,4.08-15.68,7.56a11.75,11.75,0,0,1,4.95,7c6.21-2.24,14.34-5.67,17.28-7.77,0,0,19.17-14.68,21.26-24.6S263,244.54,263,244.54Z"/><g class="cls-25"><path class="cls-26" d="M244.14,281.16s-7.92-6.27,4.29-22.43c11.13-14.74,9.24,4.61,9.24,4.61l-8.13,17.71Z"/></g><path class="cls-7" d="M209.56,291.31l-19.5,9.6c-1,.53-9.39-2.08-10.44-1.56s-6.78,3.65-8.87,4.17,5.22,1.57,8.35,0,4.18,1.57,6.79,2.09,4.17,1,5.74,0c0,0,12-3.34,22.88-7.26A11.75,11.75,0,0,0,209.56,291.31Z"/><path class="cls-8" d="M268.33,226.3s1.57,5.74-5.22,12.52l-3.65,6.78,7.83,8.87,7.82,2.61,16.7-19.3-7.3-4.7-2.09-21.39Z"/><g class="cls-27"><path class="cls-28" d="M267.24,230s14.52-.66,14.85-9.57S265.59,226.39,267.24,230Z"/></g><path class="cls-9" d="M265.75,235.68s3.1,8.88,18.76-2.6c0,0,9.75,5.21,12.42,6.84,5.94,3.63,7.2,3,8.77,8.76l-13.89,46,4.7,18.27L246.4,313l4.44-20.3a16.6,16.6,0,0,0-5.15-13.52c-7.16-6.93,2.45-18.39,10-39.26C256.31,238.19,265.75,235.68,265.75,235.68Z"/><g class="cls-29"><path class="cls-30" d="M291.32,257.08s-8.9,11.54-7.91,33.65c0,0-27.48,9.46-39.15,8.85s1.53,8,1.53,8,33,2.51,48.17-8-2.64-42.49-2.64-42.49"/></g><path class="cls-8" d="M246.81,300.67l-12.92-5.5-5.39-4a1.69,1.69,0,0,0-1.19-.34l-6.21.57a1.39,1.39,0,0,0-.7.26c-1.08.83-4.61,3.55-3.73,3.55a9.94,9.94,0,0,0,4.7-1.56s4.69,0,5.22-.52a20,20,0,0,0,3.13,2.61c1,.52.52,0,.52,0l-7,2.12a1.64,1.64,0,0,0-.88.65c-.88,1.27-3.29,4.73-4.13,5.57,0,0,2.61,1,4.69-2.08s7.83-3.13,8.35-2.61c0,0-7.3,4.17-9.39,8.35,0,0,1,2.56,2.61.52a17.79,17.79,0,0,1,8.87-5.74l-3,3.4a1,1,0,0,0,.1,1.45l2.87,2.45s.52-2.08-.52-3.13l2.61-2.61s2.88,5.74,11.35,2.35Z"/><path class="cls-8" d="M269.58,296.57c-11.14,2.32-23.65,4.24-23.65,4.24l.22,5.57A165.45,165.45,0,0,0,274,304.85,10.48,10.48,0,0,0,269.58,296.57Z"/><path class="cls-8" d="M303.53,243.88C296.79,241,291.09,257,291.09,257c-7.31,15.13-5.54,35-5.54,35-2.43,1.42-8.93,3-16,4.53a10.48,10.48,0,0,1,4.41,8.28c15-2.23,21.47-6,21.47-6C301.72,289.43,310.28,246.8,303.53,243.88Z"/><path class="cls-8" d="M271.2,186.8s-14.52,10.88-12.61,27.64c.88,7.65,2.61,10.05,5.68,12.28,3.63,2.64,15.72,1,18.88-5.1l1.67-4.94s3,2.65,5.94-1.3,2.35-10.22-1.95-7.27l2.67-7.91-2.61-6.94Z"/><g class="cls-31"><path class="cls-28" d="M260.79,195.78s5.46,2.23,10.41-7.33c0,0,1.32,15.5,11.55,15.17l-3-2.64s1.17,10.89,8,6.93-14-24.74-14-24.74l-13.88,5,.83,7.66"/></g><path class="cls-6" d="M291.32,194.05l-10.55-5.27-14.85-3.63s-18.15,6.27-9.9,9.89c7.24,3.19,13.46-4,14.87-5.86A14.1,14.1,0,0,0,273,198a13.3,13.3,0,0,0,8.36,5.21c-.18,5.13,6,6,6,6l2.64-2,5.28-1.65Zm-18,3.74a12.26,12.26,0,0,1-2-5.53c1.61,6.11,10.13,10.37,10.13,10.37a1.8,1.8,0,0,0,0,.22A13,13,0,0,1,273.3,197.79Z"/><path class="cls-32" d="M281.43,183.31s3.95-1.79,7.91,6.13c0,0,5,11.54,0,22.1h-1S290.33,192,281.43,183.31Z"/><circle class="cls-33" cx="289.34" cy="212.53" r="4.62"/><path class="cls-32" d="M272.83,208.73c-.27,1.06-.77,1.85-1.12,1.76s-.43-1-.16-2.08.76-1.85,1.12-1.76S273.09,207.67,272.83,208.73Z"/><path class="cls-32" d="M263.94,207c-.09,1.09-.46,2-.82,1.92s-.59-.94-.5-2,.46-2,.82-1.92S264,205.89,263.94,207Z"/><path class="cls-34" d="M263,220.4a11.7,11.7,0,0,0,10.89-3.05s0,5.66-7.84,6.53C266,223.88,264.69,223.88,263,220.4Z"/><path class="cls-6" d="M262.07,201.84a2.31,2.31,0,0,1,.43-.84,2.09,2.09,0,0,1,.8-.57,1.65,1.65,0,0,1,1-.16,1.6,1.6,0,0,1,.46.17,1.71,1.71,0,0,1,.39.32l0,.07a2.82,2.82,0,0,1-.47.07l-.41,0h-.39a1.28,1.28,0,0,0-.39,0,1.79,1.79,0,0,0-.73.31,2.32,2.32,0,0,0-.6.61Z"/><path class="cls-6" d="M275.37,201.84a2,2,0,0,0-1.23-1.41,1.63,1.63,0,0,0-1-.16,1.56,1.56,0,0,0-.47.17,1.66,1.66,0,0,0-.38.32l0,.07a3,3,0,0,0,.47.07l.42,0h.38a1.28,1.28,0,0,1,.39,0,1.69,1.69,0,0,1,.73.31,2.05,2.05,0,0,1,.6.61Z"/><path class="cls-35" d="M265.66,216.35s-4.51-1.73-3.47-2.43c.83-.55,2.74-3.5,3.5-5.21a.22.22,0,0,1,.43.07C266.26,210.56,266.42,214.09,265.66,216.35Z"/><circle class="cls-32" cx="289.34" cy="212.53" r="1.98"/><path class="cls-32" d="M285.13,222.1H270.21v-.76h14.52c.6-1.16,3.7-7.14,4-7.82l.61.34c-.34.77-4,7.75-4.11,8Z"/><ellipse class="cls-32" cx="269.55" cy="221.61" rx="1.98" ry="0.82"/><path class="cls-36" d="M332.57,314.16H105.23a3,3,0,0,1-3-3h0a3,3,0,0,1,3-3H332.57a3,3,0,0,1,3,3h0A3,3,0,0,1,332.57,314.16Z"/><path class="cls-10" d="M120,236l1.94,56.51a6.5,6.5,0,0,0,6.5,6.29h81.27a6.5,6.5,0,0,0,6.5-6.73l-1.93-56.52a6.51,6.51,0,0,0-6.51-6.28H126.48A6.5,6.5,0,0,0,120,236Z"/><g class="cls-37"><path class="cls-38" d="M174.19,272.91s-6.27,24.42,0,31.35-34.64-2.64-34.64-2.64,5.61-20.13,21.11-28.71h0l7.26,4.62,6.27-4.62"/></g><path class="cls-10" d="M160.66,272.91h13.53s-20.46,33-2.14,35.31H143.84S138.23,295,160.66,272.91Z"/><path class="cls-34" d="M165.28,249.93a6,6,0,0,1,.28-1.8h-.28a7,7,0,1,0,6.93,7.65,5.47,5.47,0,0,1-1,.09A5.94,5.94,0,0,1,165.28,249.93Z"/><circle class="cls-11" cx="102.44" cy="140.18" r="68.66" transform="translate(-40.82 238.26) rotate(-88.24)"/><g class="cls-39"><circle class="cls-40" cx="102.44" cy="140.18" r="83.65" transform="translate(-69.12 113.49) rotate(-45)"/><path class="cls-41" d="M95.27,146s-17.91,0-24.18,3.13-9.4,11.2-8.06,16.57-5.82,18.81,1.79,26c6.84,6.43,12.23,5.64,14.56,4.77.26-.1.49-.2.67-.29,1.79-.9,0,23.73,0,23.73s45.23,2.69,47.92,0,3.58-59.11-2.69-65.38S101.54,146,101.54,146Z"/><path class="cls-2" d="M93.71,130.1,93,146l14.69,9.75a1,1,0,0,0,1.47-.63l2.42-12.93L97.29,124.73Z"/><g class="cls-42"><path class="cls-43" d="M92.59,140.18s2.24,1.79,4,0c0,0,10.3,17.46,19.26,14.33S106.47,137,106.47,137L97.09,130l-5.4,4Z"/></g><path class="cls-44" d="M94.6,124.28c7.17-.45,8.06-12.09,8.06-13.44s11.2-4.92,13.89-3.58,3.23,9.49,3.36,10.08c3.93-2.39,7.38-10.89,5.59-15.9-2.24-6.27-4.92-4-6.71-2.69s-1.8-4.92-11.2-10.3,1.34,6.27-9.85,5.38-12.09,10.3-12.09,10.3c-5.83,0-9.86,4.92-5.38,9.85s.9,5.37,0,9.85c-.46,2.34,4.06,3.33,8.5,3.75A7.75,7.75,0,0,1,94.6,124.28Z"/><path class="cls-2" d="M106.25,131c8.24,3.58,15.9-.57,18.63-2.38-2-3.16-3.7-6.32-3.85-9.27a24,24,0,0,0-.57-4l.11-.07c-.13-.59-1.47-6.73-4-8s-13.89,2.24-13.89,3.58c0,1.07-.57,8.64-4.39,11.93A15.28,15.28,0,0,0,106.25,131Z"/><path class="cls-44" d="M124.88,128.62c-2.73,1.81-10.39,6-18.63,2.38a15.28,15.28,0,0,1-8-8.23,6.09,6.09,0,0,1-3.67,1.51,7.75,7.75,0,0,0-5.83,3.3,78.05,78.05,0,0,0,8.07.28c2.24,25.53,29.11,23.74,33.59,17C133.36,140.49,128.63,134.57,124.88,128.62Z"/><rect class="cls-45" x="80.51" y="122.07" width="20.6" height="10.58" transform="translate(174.41 259.55) rotate(-176.82)"/><path class="cls-2" d="M79.38,140.4s0-13.88,2.24-15.67,7.61-8.51,10.3-6.72,1.34,2.69,3.13,3.58.9,2.24,2.24,3.14,3.14,4.47,2.24,4.47h-4s-6.27,11.65-9,11.2l-.45,1.79H79.38Z"/><path class="cls-2" d="M85.87,142s.9,44.33-3.13,47-14.78-.45-12.54-9.4,10.3-41.65,10.3-41.65Z"/><path class="cls-46" d="M106.47,133.91s7.84,2.35,11.41,1.55a.37.37,0,0,1,.43.49,20,20,0,0,0-1.09,3.78C117.22,140.62,109.16,139.28,106.47,133.91Z"/><path class="cls-47" d="M115.25,120.47s10.46,6.29,7.62,9-5,2.28-5,2.28S114.18,122.07,115.25,120.47Z"/><path class="cls-48" d="M106.47,122.71a2.6,2.6,0,0,1,.45-1.62,2.15,2.15,0,0,1,1.6-.9,2.94,2.94,0,0,1,1.7.47,4.08,4.08,0,0,1,1.18,1.16c-.28-.08-.52-.18-.77-.27s-.48-.16-.71-.26a3.89,3.89,0,0,0-1.34-.21,1.9,1.9,0,0,0-1.13.48A5.68,5.68,0,0,0,106.47,122.71Z"/><path class="cls-48" d="M121,118.39a2,2,0,0,0-.88-1,1.7,1.7,0,0,0-1.48-.11,2.31,2.31,0,0,0-1.08.93,5.59,5.59,0,0,0-.3.6,5.19,5.19,0,0,0-.17.65,4.11,4.11,0,0,0,.47-.46c.14-.15.3-.28.44-.43a3.16,3.16,0,0,1,.9-.62,1.58,1.58,0,0,1,1,0A4.54,4.54,0,0,1,121,118.39Z"/><path class="cls-44" d="M104.13,119.24a4.91,4.91,0,0,1,.85-2c1.15-1.62,3-1.82,4.84-1.45.85.17,1-1.16.19-1.33a5.81,5.81,0,0,0-5.88,1.67,6.24,6.24,0,0,0-1.33,3,.67.67,0,0,0,1.33.19Z"/><path class="cls-44" d="M115.61,113.66a4.16,4.16,0,0,1,1.69-.65,3.67,3.67,0,0,1,3.6,2c.38.6,1.27,0,.89-.64a4.75,4.75,0,0,0-4.31-2.52,5.16,5.16,0,0,0-2.51.88.55.55,0,0,0,.64.89Z"/></g><path class="cls-3" d="M256.93,71.44H379.76a3.89,3.89,0,0,1,3.89,3.89v31a3.9,3.9,0,0,1-1.71,3.22l-19.65,13.27a1.31,1.31,0,0,1-2-1.46l3.93-13H256.93a3.88,3.88,0,0,1-3.88-3.88V75.33A3.89,3.89,0,0,1,256.93,71.44Z"/><g class="cls-49"><polygon class="cls-50" points="357.89 111.99 362.24 108.37 374.94 108.37 358.62 117.44 357.89 111.99"/></g><path class="cls-34" d="M267.89,81.34H370.57a1.64,1.64,0,0,0,1.64-1.65h0A1.64,1.64,0,0,0,370.57,78H267.89a1.65,1.65,0,0,0-1.65,1.65h0A1.65,1.65,0,0,0,267.89,81.34Z"/><path class="cls-34" d="M267.89,89.69H370.57A1.64,1.64,0,0,0,372.21,88h0a1.64,1.64,0,0,0-1.64-1.65H267.89A1.65,1.65,0,0,0,266.24,88h0A1.65,1.65,0,0,0,267.89,89.69Z"/><rect class="cls-34" x="319.23" y="94.75" width="52.99" height="3.3" rx="1.17" transform="translate(691.44 192.8) rotate(180)"/><path class="cls-11" d="M388.24,127.59h15.59a1,1,0,0,1,1,1v8.22a1,1,0,0,1-.45.86l-5.21,3.52a.35.35,0,0,1-.53-.39l1-3.44H388.24a1,1,0,0,1-1-1v-7.74A1,1,0,0,1,388.24,127.59Z"/><path class="cls-4" d="M341.78,114.71H208.14a4.23,4.23,0,0,0-4.23,4.23v33.71a4.25,4.25,0,0,0,1.86,3.51l21.37,14.44A1.42,1.42,0,0,0,229.3,169L225,154.9H341.78a4.22,4.22,0,0,0,4.22-4.23V118.94A4.22,4.22,0,0,0,341.78,114.71Z"/><g class="cls-51"><polygon class="cls-52" points="231.93 158.83 227.2 154.88 213.38 154.88 231.15 164.75 231.93 158.83"/></g><path class="cls-34" d="M329.86,125.48H218.14a1.8,1.8,0,0,1-1.79-1.8h0a1.79,1.79,0,0,1,1.79-1.79H329.86a1.79,1.79,0,0,1,1.79,1.79h0A1.8,1.8,0,0,1,329.86,125.48Z"/><path class="cls-34" d="M329.86,134.57H218.14a1.8,1.8,0,0,1-1.79-1.8h0a1.79,1.79,0,0,1,1.79-1.79H329.86a1.79,1.79,0,0,1,1.79,1.79h0A1.8,1.8,0,0,1,329.86,134.57Z"/><rect class="cls-34" x="216.35" y="140.07" width="57.65" height="3.59" rx="1.27"/><g class="cls-53"><circle class="cls-54" cx="340.83" cy="350.72" r="70.45" transform="translate(-148.17 343.72) rotate(-45)"/><path class="cls-2" d="M345.66,356.82c-4.32,9.92-12,18.06-17.8,10.17-4.36-5.87-.95-13.87,1.07-17.56a76.21,76.21,0,0,1,12.3-2.78H347s3.44,0,7.73.27A20.78,20.78,0,0,0,345.66,356.82Z"/><g class="cls-55"><path class="cls-43" d="M334.22,346.65c0,.51-.26,8.39-.26,8.39l-4.83-8.14Z"/></g><path class="cls-56" d="M319.26,354.52c2.21-2.21,5.92-3.87,9.67-5.09-2,3.69-5.43,11.69-1.07,17.56,5.85,7.89,13.48-.25,17.8-10.17a20.78,20.78,0,0,1,9.1-9.9c5.14.33,11.49,1.05,14.65,2.63,5.8,2.9,8.7,10.36,7.46,15.33s5.39,17.41-1.66,24c-6.32,5.95-11.31,5.22-13.47,4.41a5.43,5.43,0,0,1-.62-.27c-1.66-.83,0,22,0,22s-41.86,2.48-44.34,0S313.46,360.32,319.26,354.52Z"/><path class="cls-5" d="M344.64,304.43s-4.07-5.85-14-1.27-22.39,27-6.87,46.79c0,0,3.3-4.83,15.26-6.1S344.64,304.43,344.64,304.43Z"/><g class="cls-57"><polygon class="cls-58" points="346.68 302.39 335.74 306.72 343.37 301.38 346.68 302.39"/><path class="cls-58" d="M322.42,321.33s-10.08,25.57,7.73,26.08-7.73-26.08-7.73-26.08"/></g><path class="cls-2" d="M348.23,331.94l.62,14.71-13.6,9a.89.89,0,0,1-1.36-.58l-2.24-12L344.91,327Z"/><g class="cls-59"><path class="cls-43" d="M349.26,341.26s-2.45-2.11-4.11-3.77c0,0-4.32,12.46-17.29,10.94-8.72-1,8.56-10.07,8.56-10.07l8.68-6.56,5,3.66Z"/></g><path class="cls-2" d="M320.48,330.88a68.91,68.91,0,0,1,2.89-12.66c.12-.55,1.35-6.23,3.72-7.42s12.85,2.07,12.85,3.32c0,1,.53,8,4.07,11a5.57,5.57,0,0,0,3.39,1.4,7.15,7.15,0,0,1,5.39,3.06,72.75,72.75,0,0,1-7.46.26c-3.23,18.3-15.24,16.26-18.74,15.76S320,338.05,320.48,330.88Z"/><g class="cls-60"><path class="cls-43" d="M331.67,309.51c.77,0,.89,16.09,15.83,18.73s-5.4-15.42-5.4-15.42Z"/></g><path class="cls-46" d="M336.14,337.57s-6.32,1.89-9.21,1.25a.3.3,0,0,0-.34.39,16,16,0,0,1,.88,3.05C327.47,343,334,341.9,336.14,337.57Z"/><path class="cls-48" d="M336.14,328.53a2,2,0,0,0-.36-1.3,1.75,1.75,0,0,0-1.29-.73,2.32,2.32,0,0,0-1.37.38,3.62,3.62,0,0,0-.53.42,4.06,4.06,0,0,0-.42.51c.22-.06.42-.14.61-.21s.4-.13.58-.21a3,3,0,0,1,1.08-.17,1.56,1.56,0,0,1,.91.38A4.6,4.6,0,0,1,336.14,328.53Z"/><path class="cls-48" d="M324.4,325.05a1.65,1.65,0,0,1,.72-.83,1.37,1.37,0,0,1,1.19-.09,1.84,1.84,0,0,1,.87.75,3.17,3.17,0,0,1,.24.49,2.33,2.33,0,0,1,.13.52c-.14-.12-.25-.25-.37-.37l-.35-.35a2.72,2.72,0,0,0-.73-.5,1.28,1.28,0,0,0-.8,0A4,4,0,0,0,324.4,325.05Z"/><path class="cls-5" d="M331.67,310.53s4.33,15,16.66,16.28-10-18.31-10-18.31H325.82L322,317.91S329.38,315.62,331.67,310.53Z"/><path class="cls-5" d="M331.65,308.5c.28,0,12.23-6.62,17.32-5.09S365.5,321,364,337s-23.14,13.74-23.14,13.74,11.19-14.5,1-31l-7.63-7.12Z"/><rect class="cls-45" x="341.89" y="326.29" width="19.06" height="9.79" transform="translate(-121.8 427.28) rotate(-54.78)"/><path class="cls-2" d="M361,341.19s0-11.12-1.8-12.56-6.1-6.82-8.25-5.38-1.08,2.15-2.51,2.87-.72,1.79-1.8,2.51-2.51,3.59-1.79,3.59h3.23s5,9.33,7.18,9l.35,1.44H361Z"/><path class="cls-2" d="M354.82,339s-.17,44.93,3.56,47.42,13.68-.42,11.6-8.71-9.53-38.54-9.53-38.54Z"/><path class="cls-61" d="M328.88,334.44l-2.29-1.27A31.91,31.91,0,0,0,329,329.5a.21.21,0,0,1,.4.1A16.43,16.43,0,0,1,328.88,334.44Z"/><path class="cls-5" d="M337.73,326.31a5.43,5.43,0,0,0-3.7-3.6.19.19,0,0,1,.1-.37,5.86,5.86,0,0,1,4,3.87c.07.23-.3.33-.37.1Z"/><path class="cls-5" d="M328.18,320.63a4.69,4.69,0,0,0-4.09,1.68.16.16,0,0,1-.26-.2,5,5,0,0,1,4.4-1.8c.21,0,.16.35-.05.32Z"/><path class="cls-5" d="M331,308.5V309c0,.2,0,.39,0,.59,0,.39,0,.78.07,1.17a19.34,19.34,0,0,0,.37,2.3,19.07,19.07,0,0,0,1.57,4.36,18.55,18.55,0,0,0,2.59,3.79,21.25,21.25,0,0,0,3.41,3,20.11,20.11,0,0,1-3.16-3.23,17.55,17.55,0,0,1-3.47-8.11,20.43,20.43,0,0,1-.2-2.2c0-.37,0-.73,0-1.1l0-.54.05-.59Z"/></g></g></g></g></svg>