<svg xmlns="http://www.w3.org/2000/svg" viewBox="0 0 62.69 43.07"><defs><style>.cls-1{isolation:isolate;}.cls-2{fill:#3bcee2;}.cls-3{fill:#c1c1c1;opacity:0.5;mix-blend-mode:multiply;}.cls-4{fill:#343643;}.cls-5{fill:#585964;}.cls-6{fill:#2a169b;}</style></defs><title>Asset 10</title><g class="cls-1"><g id="Layer_2" data-name="Layer 2"><g id="Layer_1-2" data-name="Layer 1"><path class="cls-2" d="M55.62,16.8a7,7,0,0,0-2.82.59,6.64,6.64,0,0,0,.2-1.61A6.76,6.76,0,0,0,46.25,9a6.86,6.86,0,0,0-2.14.35A8.52,8.52,0,0,0,27.66,8.23,11.14,11.14,0,1,0,7,16.22,7.37,7.37,0,0,0,7.38,31H55.62a7.08,7.08,0,0,0,0-14.16Z"/><rect class="cls-3" x="16.27" y="10.88" width="31.7" height="20.07"/><polygon class="cls-4" points="32.3 41.53 20.97 41.53 23.56 32.79 29.71 32.79 32.3 41.53"/><rect class="cls-5" x="10.78" y="10.88" width="31.7" height="23.44"/><rect class="cls-6" x="12.84" y="13.24" width="27.59" height="18.73"/><rect class="cls-5" x="18.85" y="39.99" width="15.56" height="3.07" rx="1.52"/></g></g></g></svg>