<svg xmlns="http://www.w3.org/2000/svg" viewBox="0 0 439.14 479.53"><defs><style>.cls-1{fill:#414074;}.cls-2{fill:#2d2d51;}.cls-3,.cls-5{fill:#fff;}.cls-4{opacity:0.5;}.cls-5,.cls-8{stroke:#888cf0;}.cls-11,.cls-12,.cls-13,.cls-15,.cls-5,.cls-8{stroke-miterlimit:10;}.cls-5{stroke-width:0.88px;}.cls-6,.cls-8{fill:#888cf0;}.cls-7{fill:#ffc979;}.cls-8{stroke-width:0.18px;}.cls-14,.cls-18,.cls-20,.cls-9{fill:#001627;}.cls-9{opacity:0.2;}.cls-10{fill:#f1b762;}.cls-11{fill:#c68d42;stroke-width:1.79px;}.cls-11,.cls-12,.cls-15{stroke:#f1b762;}.cls-12,.cls-13,.cls-15{fill:none;}.cls-12{stroke-width:4.28px;}.cls-13{stroke:#959faf;stroke-width:1.07px;}.cls-13,.cls-15{stroke-linecap:round;}.cls-14{opacity:0.1;}.cls-15{stroke-width:2.14px;}.cls-16{fill:#edaa98;}.cls-17{fill:#ffc1ac;}.cls-19{fill:#03243a;}.cls-20{opacity:0.4;}.cls-21{fill:#6e7989;}.cls-22{fill:#a9acd8;}.cls-23{fill:#7178c6;}.cls-24{fill:#2e2e59;}.cls-25{fill:#d8a159;}</style></defs><title>Asset 2</title><g id="Layer_2" data-name="Layer 2"><g id="OBJECTS"><polygon class="cls-1" points="86.01 363.54 69.22 396.19 69.84 401.09 319.25 403.26 319.25 396.74 301.83 363 86.01 363.54"/><polygon class="cls-2" points="69.22 396.19 69.84 401.09 319.25 403.26 319.25 396.74 69.22 396.19"/><polyline class="cls-2" points="78.92 197.34 317.16 195.04 303.97 350.04 83.58 345.69 75.05 192.87"/><polygon class="cls-1" points="75.45 192.79 75.05 192.87 83.58 340.5 303.97 344.84 317.16 195.04 75.45 192.79"/><polyline class="cls-3" points="84.36 198.68 307.85 200.69 295.67 338.97 92.24 334.96 84.36 198.68"/><g class="cls-4"><rect class="cls-5" x="130.25" y="222.65" width="159.1" height="107.85"/><rect class="cls-6" x="134.9" y="231.17" width="8.24" height="3.57"/><rect class="cls-6" x="134.9" y="238.01" width="8.24" height="3.57"/><rect class="cls-6" x="134.9" y="244.85" width="8.24" height="3.57"/><rect class="cls-6" x="134.9" y="251.69" width="8.24" height="3.57"/><rect class="cls-6" x="134.9" y="258.52" width="8.24" height="3.57"/><rect class="cls-6" x="134.9" y="265.36" width="8.24" height="3.57"/><rect class="cls-6" x="134.9" y="272.2" width="8.24" height="3.57"/><rect class="cls-6" x="134.9" y="279.04" width="8.24" height="3.57"/><rect class="cls-6" x="134.9" y="285.87" width="8.24" height="3.57"/><rect class="cls-6" x="134.9" y="292.71" width="8.24" height="3.57"/><rect class="cls-6" x="134.9" y="299.55" width="8.24" height="3.57"/><rect class="cls-6" x="134.9" y="306.38" width="8.24" height="3.57"/><rect class="cls-6" x="134.9" y="313.22" width="8.24" height="3.57"/><rect class="cls-6" x="134.9" y="320.06" width="8.24" height="3.57"/><rect class="cls-7" x="162.42" y="231.17" width="14.42" height="3.57"/><rect class="cls-6" x="180.66" y="231.17" width="67.83" height="3.57"/><rect class="cls-7" x="157.34" y="238.01" width="17.51" height="3.57"/><rect class="cls-6" x="179.12" y="238.01" width="75.77" height="3.57"/><rect class="cls-7" x="174.92" y="244.85" width="24.72" height="3.57"/><rect class="cls-6" x="203.17" y="244.85" width="60.03" height="3.57"/><rect class="cls-7" x="187.8" y="251.69" width="23.69" height="3.57"/><rect class="cls-6" x="216.05" y="251.69" width="60.1" height="3.57"/><rect class="cls-7" x="164.37" y="258.52" width="16.99" height="3.57"/><rect class="cls-6" x="185.55" y="258.52" width="68.82" height="3.57"/><rect class="cls-7" x="157.12" y="265.36" width="14.42" height="3.57"/><rect class="cls-6" x="175.37" y="265.36" width="73.13" height="3.57"/><rect class="cls-7" x="190.56" y="272.2" width="21.11" height="3.57"/><rect class="cls-6" x="216.45" y="272.2" width="56.17" height="3.57"/><rect class="cls-7" x="165.51" y="279.04" width="24.72" height="3.57"/><rect class="cls-6" x="194.35" y="279.04" width="65.92" height="3.57"/><rect class="cls-7" x="176.98" y="285.87" width="45.32" height="3.57"/><rect class="cls-6" x="226.42" y="285.87" width="55.32" height="3.57"/><rect class="cls-7" x="174.37" y="292.71" width="33.47" height="3.57"/><rect class="cls-6" x="213.51" y="292.71" width="54.99" height="3.57"/><rect class="cls-7" x="165.51" y="299.55" width="32.96" height="3.57"/><rect class="cls-6" x="202.58" y="299.55" width="60.03" height="3.57"/><rect class="cls-7" x="164.18" y="306.38" width="22.66" height="3.57"/><rect class="cls-6" x="191.84" y="306.38" width="61.94" height="3.57"/><rect class="cls-7" x="157.64" y="313.22" width="21.63" height="3.57"/><rect class="cls-6" x="182.94" y="313.22" width="83.79" height="3.57"/><rect class="cls-7" x="193.76" y="320.06" width="24.72" height="3.57"/><rect class="cls-6" x="223.18" y="320.06" width="58.85" height="3.57"/><rect class="cls-8" x="130.25" y="223" width="159.1" height="4.3"/></g><rect class="cls-3" x="97.25" y="209.65" width="159.1" height="107.85"/><g class="cls-4"><rect class="cls-5" x="97.25" y="209.65" width="159.1" height="107.85"/><rect class="cls-6" x="101.9" y="218.17" width="8.24" height="3.57"/><rect class="cls-6" x="101.9" y="225.01" width="8.24" height="3.57"/><rect class="cls-6" x="101.9" y="231.85" width="8.24" height="3.57"/><rect class="cls-6" x="101.9" y="238.69" width="8.24" height="3.57"/><rect class="cls-6" x="101.9" y="245.52" width="8.24" height="3.57"/><rect class="cls-6" x="101.9" y="252.36" width="8.24" height="3.57"/><rect class="cls-6" x="101.9" y="259.2" width="8.24" height="3.57"/><rect class="cls-6" x="101.9" y="266.04" width="8.24" height="3.57"/><rect class="cls-6" x="101.9" y="272.87" width="8.24" height="3.57"/><rect class="cls-6" x="101.9" y="279.71" width="8.24" height="3.57"/><rect class="cls-6" x="101.9" y="286.55" width="8.24" height="3.57"/><rect class="cls-6" x="101.9" y="293.38" width="8.24" height="3.57"/><rect class="cls-6" x="101.9" y="300.22" width="8.24" height="3.57"/><rect class="cls-6" x="101.9" y="307.06" width="8.24" height="3.57"/><rect class="cls-7" x="129.42" y="218.17" width="14.42" height="3.57"/><rect class="cls-6" x="147.66" y="218.17" width="67.83" height="3.57"/><rect class="cls-7" x="124.34" y="225.01" width="17.51" height="3.57"/><rect class="cls-6" x="146.12" y="225.01" width="75.77" height="3.57"/><rect class="cls-7" x="141.92" y="231.85" width="24.72" height="3.57"/><rect class="cls-6" x="170.17" y="231.85" width="60.03" height="3.57"/><rect class="cls-7" x="154.8" y="238.69" width="23.69" height="3.57"/><rect class="cls-6" x="183.05" y="238.69" width="60.1" height="3.57"/><rect class="cls-7" x="131.37" y="245.52" width="16.99" height="3.57"/><rect class="cls-6" x="152.55" y="245.52" width="68.82" height="3.57"/><rect class="cls-7" x="124.12" y="252.36" width="14.42" height="3.57"/><rect class="cls-6" x="142.37" y="252.36" width="73.13" height="3.57"/><rect class="cls-7" x="157.56" y="259.2" width="21.11" height="3.57"/><rect class="cls-6" x="183.45" y="259.2" width="56.17" height="3.57"/><rect class="cls-7" x="132.51" y="266.04" width="24.72" height="3.57"/><rect class="cls-6" x="161.35" y="266.04" width="65.92" height="3.57"/><rect class="cls-7" x="143.98" y="272.87" width="45.32" height="3.57"/><rect class="cls-6" x="193.42" y="272.87" width="55.32" height="3.57"/><rect class="cls-7" x="141.37" y="279.71" width="33.47" height="3.57"/><rect class="cls-6" x="180.51" y="279.71" width="54.99" height="3.57"/><rect class="cls-7" x="132.51" y="286.55" width="32.96" height="3.57"/><rect class="cls-6" x="169.58" y="286.55" width="60.03" height="3.57"/><rect class="cls-7" x="131.18" y="293.38" width="22.66" height="3.57"/><rect class="cls-6" x="158.84" y="293.38" width="61.94" height="3.57"/><rect class="cls-7" x="124.64" y="300.22" width="21.63" height="3.57"/><rect class="cls-6" x="149.94" y="300.22" width="83.79" height="3.57"/><rect class="cls-7" x="160.76" y="307.06" width="24.72" height="3.57"/><rect class="cls-6" x="190.18" y="307.06" width="58.85" height="3.57"/><rect class="cls-8" x="97.25" y="210" width="159.1" height="4.3"/></g><path class="cls-9" d="M20.76,388.45c0,3.12,9.1,5.65,20.32,5.65s20.31-2.53,20.31-5.65-9.1-5.66-20.31-5.66S20.76,385.32,20.76,388.45Z"/><polygon class="cls-10" points="26.29 348.94 27.99 387.15 60.57 386.51 63.18 349.07 26.29 348.94"/><path class="cls-11" d="M27.16,349.07c0,2.45,8.09,4.43,18.08,4.43s17.21-2,17.21-4.43-7.23-4.42-17.21-4.42S27.16,346.63,27.16,349.07Z"/><path class="cls-10" d="M28,386.88c0,2.45,8.39,5.18,16.9,5.18s15.68-3.11,15.68-5.55-6.9-4.43-15.4-4.43S28,384.43,28,386.88Z"/><circle class="cls-12" cx="26.76" cy="366.7" r="9.82"/><line class="cls-13" x1="54.03" y1="351.71" x2="54.03" y2="366.43"/><polygon class="cls-3" points="54.03 362.75 49.12 367.79 49.8 375.43 59.07 375.02 59.62 366.16 54.03 362.75"/><ellipse class="cls-9" cx="397.47" cy="381.11" rx="27.8" ry="7.66"/><path class="cls-10" d="M369.47,301.68a5.83,5.83,0,0,1-8.19,1h0a5.83,5.83,0,0,1-1-8.19l12.25-15.55a5.83,5.83,0,0,1,8.19-1h0a5.83,5.83,0,0,1,1,8.19Z"/><path class="cls-14" d="M369.47,301.68a5.83,5.83,0,0,1-8.19,1h0a5.83,5.83,0,0,1-1-8.19l12.25-15.55a5.83,5.83,0,0,1,8.19-1h0a5.83,5.83,0,0,1,1,8.19Z"/><path class="cls-10" d="M370.06,378.91c-.17,5.3,10.54,7.83,24.1,8.29s24.85-1.34,25-6.65S407.6,365.84,394,365.38,370.24,373.6,370.06,378.91Z"/><path class="cls-14" d="M399.1,366c7.33,3.88,12.36,10.07,12.22,14.2-.12,3.6-3.88,5.84-9.61,7,10-.38,17.33-2.37,17.47-6.65C419.34,375.92,410.4,368.17,399.1,366Z"/><line class="cls-15" x1="425.27" y1="272.94" x2="396.4" y2="368.1"/><line class="cls-15" x1="431.15" y1="272.94" x2="402.28" y2="368.1"/><line class="cls-15" x1="365.11" y1="303.6" x2="438.07" y2="279.31"/><line class="cls-15" x1="361.98" y1="298.62" x2="434.94" y2="274.33"/><path class="cls-10" d="M372.77,323.66a24,24,0,0,0,1.84-2.27c7.44-10.34,5.89-24.18-3.47-30.91s-23-3.8-30.41,6.54a26.11,26.11,0,0,0-1.56,2.47Z"/><path class="cls-14" d="M371.14,290.48c-.2-.14-.4-.25-.6-.38,4.85,7.31,4.64,17.72-1.27,25.94a24.36,24.36,0,0,1-1.85,2.27l-27.63-19.87c-.21.35-.43.7-.62,1.05l33.6,24.17a24,24,0,0,0,1.84-2.27C382.05,311.05,380.5,297.21,371.14,290.48Z"/><path class="cls-3" d="M353.49,315c9.47,6.72,18.36,10.47,19.84,8.37s-5-9.24-14.46-16S340.51,296.9,339,299,344,308.24,353.49,315Z"/><polygon class="cls-16" points="157.97 228.39 149.41 246.21 156.9 251.91 157.97 228.39"/><path class="cls-17" d="M159.75,216.27S140.5,282.92,177.93,274l2.14,21.74,28.86,2.85,1.07-31s10-64.16,5-70.21S168.66,180.28,159.75,216.27Z"/><path class="cls-16" d="M164.6,216.27S144.35,282.92,177.93,274l.87,23.39,29.93,1.2,1-31s8.95-64.16,4.47-70.21S172.59,180.28,164.6,216.27Z"/><path class="cls-18" d="M225,198.45a18.11,18.11,0,0,0-13.73-7.37c-.62-10.79-16.56-11.4-29-9-16.63,3.17-31-10.69-31-10.69-4.28,15,4.27,22.09,4.27,22.09-3.92-.71-9.26-8.19-9.26-8.19-2.14,16,13.9,26.37,13.9,26.37-1.07,8.2,5,13.9,5,13.9l.71,18.53H169a29.09,29.09,0,0,1,1.78-12.47c2.49-6.77,8.91-.71,7.84,10.34s-7.13,6.41-7.13,6.41c1.07,8.55,12.12,21,12.12,21h26C235.66,227,231.74,207.36,225,198.45Z"/><path class="cls-19" d="M163,223c2.6-10.2,8-19.9,15.87-26.4,8.35-6.89,19.22-12.07,30.11-11-4.92-5.4-16.93-5.39-26.79-3.51-16.63,3.17-31-10.69-31-10.69-4.28,15,4.27,22.09,4.27,22.09-3.92-.71-9.26-8.19-9.26-8.19-2.14,16,13.9,26.37,13.9,26.37A16.48,16.48,0,0,0,163,223Z"/><path class="cls-16" d="M176.8,234.33a9.94,9.94,0,0,0-1.09-1,3.33,3.33,0,0,0-.56-.39,1.8,1.8,0,0,0-.55-.23.46.46,0,0,0-.39,0c-.05,0-.08.07-.12.09s-.08.1-.12.15a.69.69,0,0,0-.13.21l-.11.25-.18.59,0-.17c-.09,1.42-.17,2.84-.34,4.25s-.37,2.82-.62,4.22l-.61-.9a5.83,5.83,0,0,1,.8.34,5.66,5.66,0,0,1,.75.44,3.78,3.78,0,0,1,.7.58c.11.13.22.26.31.39a3.12,3.12,0,0,1,.23.49,1.54,1.54,0,0,1,.07.56,1.24,1.24,0,0,1-.12.52,1.87,1.87,0,0,1-.25.42l-.31.33a2.71,2.71,0,0,1-.35.24,4,4,0,0,1-.34.22l-.74.31a7,7,0,0,0,.94-1.18l.15-.3a1.77,1.77,0,0,0,.06-.28c0-.09,0-.17,0-.23s-.07-.13-.08-.19-.12-.12-.16-.18l-.22-.17c-.18-.1-.36-.2-.56-.29a4.88,4.88,0,0,0-.64-.23l-.65-.17-.66-.15,0-.76c.08-1.42.19-2.84.36-4.25s.39-2.82.63-4.22l0-.15v0l.39-.76A3.38,3.38,0,0,1,173,232a1.53,1.53,0,0,1,.43-.31,1.39,1.39,0,0,1,.56-.16,1.3,1.3,0,0,1,.56,0,1.54,1.54,0,0,1,.47.18,2.2,2.2,0,0,1,.67.56,4.85,4.85,0,0,1,.49.63A6.12,6.12,0,0,1,176.8,234.33Z"/><path class="cls-1" d="M321.33,372.22s-2.15,5.65.78,7.4,20.46,1.56,21-3.7-3.7-10.91-9-12.27S321.33,372.22,321.33,372.22Z"/><path class="cls-2" d="M340.22,367.52a9.25,9.25,0,0,1,.2,3.14c-.52,4.73-14.76,5.36-19.74,4.17-.25,1.72-.17,3.84,1.43,4.79,2.92,1.76,20.46,1.56,21-3.7A11.27,11.27,0,0,0,340.22,367.52Z"/><path class="cls-17" d="M310.22,364s13.84-8.38,15.78-7.8,3.9,1.37,3.9,1.37,2.73-1.56,4.48-.78,9.74,3.89,8.38,5.84-5.85.39-5.85.39,5.66,1.37,6.63,2.54a2.09,2.09,0,0,1-2.14,2.53c-2.54,0-8.38-2.15-8.38-2.15s-7.6,9.94-13.45,9.94S310.22,364,310.22,364Z"/><path class="cls-17" d="M112.13,362.74s-12-8.38-13.73-7.8S95,356.31,95,356.31s-2.38-1.56-3.9-.78-8.48,3.9-7.29,5.84,5.08.39,5.08.39-4.91,1.37-5.76,2.54c0,0-.34,2.53,1.86,2.53s7.29-2.14,7.29-2.14,6.62,9.93,11.7,9.93S112.13,362.74,112.13,362.74Z"/><path class="cls-10" d="M311.58,359.2c-5.34,0-31.19,9.44-31.19,9.44S261.15,313,245.11,297s-67.9-11.23-92.49-6.95c-15.6,2.71-25.94,23.42-30.81,73.11-10.25-5.34-15.12-7.42-19.49-6.33-11.69,2.92-8.77,17.05-8.77,17.05s19.31,14.42,26.8,16.56c4.57,1.31,16.4,16.72,24.84-38.48-.49,13.15-6.5,39.61-1.12,68.53l104.78,9.63s-3.63-38.37-4.94-67.77c8.4,9,17.84,33.19,27.28,33.77,7.77.48,38.79-9.12,46.27-13.4S316.93,359.2,311.58,359.2Z"/><path class="cls-14" d="M315.38,363.76c-5.34,0-33,10.8-33,10.8s-.69-2.24-1.9-5.94l-.05,0S264.34,322.26,249.33,302l-.42-.44c-16-16-67.89-11.23-92.49-6.95-15.59,2.71-25.94,23.43-30.81,73.11a180.37,180.37,0,0,0-24.88-10.38c-9.81,3.76-7.18,16.54-7.18,16.54s19.31,14.42,26.8,16.56c4.57,1.31,16.4,16.72,24.84-38.48-.49,13.15-6.5,39.61-1.12,68.53l104.78,9.63s-3.63-38.37-4.94-67.77c8.4,9,17.84,33.19,27.28,33.77,7.77.48,38.79-9.12,46.27-13.4,5-2.85,3.1-12.31-.29-18.34A3.42,3.42,0,0,0,315.38,363.76Z"/><path class="cls-18" d="M270.15,479h48.6c6.3-12.86,11.93-26.54,11.36-29.59-5.34-28.87-82.3-35.7-82.3-35.7-10.66,3.29-18,5.83-29.26,7.14-24,2.78-48.06,1.9-72.07.12,1.25,11.5,3.07,21.75,5.73,28.44h86.54C250.53,456.2,260.9,468,270.15,479Z"/><rect class="cls-1" x="125.58" y="440.81" width="164.98" height="38.72" rx="10.69"/><path class="cls-20" d="M242.44,468.93c0,5.85-4.32,10.6-9.65,10.6H135.22c-5.33,0-9.64-4.75-9.64-10.6V452.39c0-5.85,4.31-10.6,9.64-10.6h97.57c5.33,0,9.65,4.75,9.65,10.6Z"/><rect class="cls-1" x="132.99" y="312.5" width="110.13" height="91.45" rx="9.83"/><rect class="cls-20" x="132.99" y="322.26" width="99.31" height="81.69" rx="8.87"/><path class="cls-21" d="M194.09,479V372a9.34,9.34,0,0,0-18.68,0V479Z"/><path class="cls-9" d="M189.75,479h4.34V372a9.31,9.31,0,0,0-5.28-8.4,9.21,9.21,0,0,1,.94,4.06Z"/><path class="cls-22" d="M387.05,12.17H308.84a10.18,10.18,0,0,0-10.18,10.18v48a10.19,10.19,0,0,0,10.18,10.19H344l-5.6,20.67H344l22.35-20.67h20.73a10.19,10.19,0,0,0,10.19-10.19v-48A10.19,10.19,0,0,0,387.05,12.17Z"/><path class="cls-3" d="M381.45,12.17H303.24a10.19,10.19,0,0,0-10.19,10.18v48a10.19,10.19,0,0,0,10.19,10.19h35.13v20.67l22.34-20.67h20.74a10.19,10.19,0,0,0,10.18-10.19v-48A10.18,10.18,0,0,0,381.45,12.17Z"/><path class="cls-6" d="M320.07,39.94a3.84,3.84,0,0,0-3.35,1.76,8.49,8.49,0,0,0-1.2,4.84q0,6.42,4.88,6.42a9.79,9.79,0,0,0,2.86-.41,26.48,26.48,0,0,0,2.78-1v5.08a15.22,15.22,0,0,1-6.29,1.24c-3.36,0-5.93-1-7.72-2.92s-2.69-4.77-2.69-8.45a13.59,13.59,0,0,1,1.3-6.07,9.39,9.39,0,0,1,3.74-4A11.32,11.32,0,0,1,320.13,35,15.89,15.89,0,0,1,327,36.58l-1.84,4.73a21,21,0,0,0-2.47-1A8.39,8.39,0,0,0,320.07,39.94Z"/><path class="cls-6" d="M340.07,57.57l-4.55-16h-.14c.22,2.73.32,4.85.32,6.36v9.66h-5.32V35.33h8L343,51.12h.12l4.55-15.79h8V57.57h-5.53V47.82c0-.51,0-1.07,0-1.69s.08-2.13.2-4.54h-.14l-4.48,16Z"/><path class="cls-6" d="M375,50.82A6.55,6.55,0,0,1,374,54.49a6.93,6.93,0,0,1-3,2.5,11.26,11.26,0,0,1-4.64.89,18.45,18.45,0,0,1-3.72-.32,13.79,13.79,0,0,1-3.14-1.08V51.12A17.9,17.9,0,0,0,363,52.5a13.21,13.21,0,0,0,3.4.49,3.33,3.33,0,0,0,2-.46,1.44,1.44,0,0,0,.62-1.19,1.27,1.27,0,0,0-.25-.8,3.09,3.09,0,0,0-.81-.7c-.37-.23-1.35-.71-3-1.43a13.92,13.92,0,0,1-3.26-1.91,6,6,0,0,1-1.61-2.13,7.07,7.07,0,0,1-.53-2.85,5.72,5.72,0,0,1,2.24-4.79A9.9,9.9,0,0,1,368,35a17.35,17.35,0,0,1,7,1.6l-1.84,4.64a13.42,13.42,0,0,0-5.39-1.43,2.81,2.81,0,0,0-1.7.41,1.23,1.23,0,0,0-.53,1,1.45,1.45,0,0,0,.67,1.17,25.41,25.41,0,0,0,3.68,1.89,10.3,10.3,0,0,1,4,2.77A6,6,0,0,1,375,50.82Z"/><path class="cls-22" d="M201.35,100.81H132.17a9,9,0,0,0-9,9v42.45a9,9,0,0,0,8.44,9l-5,16.9h5l18.24-16.88h51.51a9,9,0,0,0,9-9V109.82A9,9,0,0,0,201.35,100.81Z"/><path class="cls-3" d="M196.39,100.81H127.21a9,9,0,0,0-9,9v42.45a9,9,0,0,0,8.44,9v16.9l18.25-16.88h51.5a9,9,0,0,0,9-9V109.82A9,9,0,0,0,196.39,100.81Z"/><path class="cls-6" d="M144.69,121.09a4.73,4.73,0,0,0-4.14,2.17,10.48,10.48,0,0,0-1.48,6q0,7.94,6,7.94a12.25,12.25,0,0,0,3.53-.51c1.14-.34,2.29-.75,3.44-1.22v6.27a18.92,18.92,0,0,1-7.78,1.53q-6.21,0-9.53-3.61t-3.32-10.43a16.5,16.5,0,0,1,1.61-7.5,11.46,11.46,0,0,1,4.62-5,13.93,13.93,0,0,1,7.09-1.74,19.59,19.59,0,0,1,8.52,1.94L151,122.78a24,24,0,0,0-3-1.2A10.56,10.56,0,0,0,144.69,121.09Z"/><path class="cls-6" d="M162.8,131.82h-7v-5h7v-6.89h5.06v6.89h7v5h-7v6.78H162.8Z"/><path class="cls-6" d="M184.58,131.82h-7v-5h7v-6.89h5.06v6.89h7v5h-7v6.78h-5.06Z"/><circle class="cls-23" cx="252.75" cy="77.89" r="27.73"/><circle class="cls-6" cx="246.82" cy="77.89" r="27.73"/><path class="cls-3" d="M233.47,72.62a3.15,3.15,0,0,0-2.75,1.44,7,7,0,0,0-1,4q0,5.26,4,5.26a8.39,8.39,0,0,0,2.35-.33c.75-.23,1.52-.5,2.28-.81v4.17a12.68,12.68,0,0,1-5.17,1,8.17,8.17,0,0,1-6.33-2.4q-2.2-2.4-2.2-6.93a11.06,11.06,0,0,1,1.06-5,7.66,7.66,0,0,1,3.07-3.3,9.3,9.3,0,0,1,4.72-1.16,12.94,12.94,0,0,1,5.65,1.29l-1.51,3.88a18.82,18.82,0,0,0-2-.8A7.3,7.3,0,0,0,233.47,72.62Z"/><path class="cls-3" d="M253.86,81.54a5.34,5.34,0,0,1-.86,3,5.63,5.63,0,0,1-2.48,2,9.31,9.31,0,0,1-3.81.73,15.51,15.51,0,0,1-3.06-.26,11.58,11.58,0,0,1-2.57-.89v-4.4A14.31,14.31,0,0,0,244,82.92a11,11,0,0,0,2.8.41,2.75,2.75,0,0,0,1.61-.38,1.17,1.17,0,0,0,.51-1,1.14,1.14,0,0,0-.2-.66,2.59,2.59,0,0,0-.66-.56,25.81,25.81,0,0,0-2.43-1.18A11.45,11.45,0,0,1,243,78a4.69,4.69,0,0,1-1.32-1.75,5.74,5.74,0,0,1-.43-2.33A4.68,4.68,0,0,1,243,70a8,8,0,0,1,5-1.42,14.05,14.05,0,0,1,5.78,1.32l-1.51,3.8a11,11,0,0,0-4.42-1.17,2.24,2.24,0,0,0-1.39.34,1,1,0,0,0-.44.83,1.19,1.19,0,0,0,.55,1,20.57,20.57,0,0,0,3,1.55A8.48,8.48,0,0,1,253,78.48,4.94,4.94,0,0,1,253.86,81.54Z"/><path class="cls-3" d="M268.62,81.54a5.42,5.42,0,0,1-.86,3,5.66,5.66,0,0,1-2.49,2,9.3,9.3,0,0,1-3.8.73,15.37,15.37,0,0,1-3.06-.26,11.41,11.41,0,0,1-2.57-.89v-4.4a14.09,14.09,0,0,0,2.93,1.13,11,11,0,0,0,2.8.41,2.75,2.75,0,0,0,1.61-.38,1.17,1.17,0,0,0,.51-1,1.08,1.08,0,0,0-.21-.66,2.59,2.59,0,0,0-.66-.56,23.36,23.36,0,0,0-2.43-1.18A11.67,11.67,0,0,1,257.71,78a4.92,4.92,0,0,1-1.32-1.75,5.74,5.74,0,0,1-.43-2.33A4.66,4.66,0,0,1,257.8,70a8,8,0,0,1,5-1.42,14.09,14.09,0,0,1,5.78,1.32l-1.51,3.8a11,11,0,0,0-4.42-1.17,2.27,2.27,0,0,0-1.4.34,1,1,0,0,0-.44.83,1.21,1.21,0,0,0,.56,1,20.82,20.82,0,0,0,3,1.55,8.33,8.33,0,0,1,3.28,2.28A5,5,0,0,1,268.62,81.54Z"/><path class="cls-23" d="M80.9,133.51A37.34,37.34,0,1,0,57.84,168l4.56,10.75h6.19V161.22A37.26,37.26,0,0,0,80.9,133.51Z"/><path class="cls-6" d="M74.7,133.51A37.33,37.33,0,1,0,51.65,168L62.4,178.77V161.22A37.29,37.29,0,0,0,74.7,133.51Z"/><path class="cls-3" d="M24.14,151.56a19.79,19.79,0,0,1-4.15-.42v-6.22l1.38.28a7.78,7.78,0,0,0,1.58.15,3.25,3.25,0,0,0,2.83-1.19,7.31,7.31,0,0,0,.85-4.09V112.68h8v26.7q0,6-2.64,9.1T24.14,151.56Z"/><path class="cls-3" d="M58.3,135.23a6.51,6.51,0,0,1-2.51,5.57q-2.51,1.88-7.2,1.88a31.58,31.58,0,0,1-4.43-.27,19.07,19.07,0,0,1-3.85-1v-6.33a23.92,23.92,0,0,0,4,1.33,16.53,16.53,0,0,0,3.92.53c1.71,0,2.57-.39,2.57-1.17a1.34,1.34,0,0,0-.72-1.09,34.36,34.36,0,0,0-4.18-1.85,10.29,10.29,0,0,1-4.41-2.94,6.7,6.7,0,0,1-1.26-4.18,5.79,5.79,0,0,1,2.47-5c1.65-1.19,4-1.78,7-1.78a17.65,17.65,0,0,1,4.26.49,25.67,25.67,0,0,1,4.14,1.45L56,126a24.88,24.88,0,0,0-3.34-1.2,11.2,11.2,0,0,0-2.88-.5c-1.29,0-1.94.32-1.94,1a1.18,1.18,0,0,0,.68,1,36.06,36.06,0,0,0,3.91,1.69,15.14,15.14,0,0,1,3.6,2,5.8,5.8,0,0,1,1.74,2.23A7.9,7.9,0,0,1,58.3,135.23Z"/><path class="cls-24" d="M115.27,0H60.19a7.81,7.81,0,0,0-7.81,7.81V62.9a7.81,7.81,0,0,0,7.81,7.81H92.58L105.25,86h5.1V70.71h4.92a7.82,7.82,0,0,0,7.82-7.81V7.81A7.82,7.82,0,0,0,115.27,0Z"/><path class="cls-1" d="M110.18,0H55.09a7.81,7.81,0,0,0-7.81,7.81V62.9a7.81,7.81,0,0,0,7.81,7.81H87.48L105.25,86V70.71h4.93A7.81,7.81,0,0,0,118,62.9V7.81A7.81,7.81,0,0,0,110.18,0Z"/><path class="cls-3" d="M75.25,44.31,57,36.19V33.08l18.28-9.15V29.3L64,34.42,75.25,39Z"/><path class="cls-3" d="M92.92,20.71,83.06,47.89H76.81l9.85-27.18Z"/><path class="cls-3" d="M94.29,39l11.21-4.55L94.29,29.3V23.93l18.28,9.15v3.11L94.29,44.31Z"/><path class="cls-24" d="M394.69,160.15H346.13a6.88,6.88,0,0,0-6.89,6.88v29.08a6.88,6.88,0,0,0,6.89,6.89l-3,13.69h5.19L363.15,203h31.54a6.89,6.89,0,0,0,6.89-6.89V167A6.89,6.89,0,0,0,394.69,160.15Z"/><path class="cls-1" d="M389.49,160.15H340.93A6.89,6.89,0,0,0,334,167v29.08a6.89,6.89,0,0,0,6.89,6.89h2.24v13.69L358,203h31.53a6.88,6.88,0,0,0,6.89-6.89V167A6.88,6.88,0,0,0,389.49,160.15Z"/><path class="cls-3" d="M354.34,189.26h-2.17v-5.95h-6.09v5.95h-2.16V176.05h2.16v5.41h6.09v-5.41h2.17Z"/><path class="cls-3" d="M362.38,189.26h-2.16V177.91h-3.89v-1.86h9.93v1.86h-3.88Z"/><path class="cls-3" d="M374,189.26l-3.83-11h-.07c.1,1.64.16,3.17.16,4.61v6.42h-2V176.05h3.05L375,186.56h.05l3.78-10.51h3.05v13.21H379.8v-6.53c0-.66,0-1.51.05-2.57s.06-1.69.09-1.91h-.07l-4,11Z"/><path class="cls-3" d="M385.36,189.26V176.05h2.16v11.36h5.59v1.85Z"/><circle class="cls-25" cx="40.31" cy="212.03" r="18.64" transform="translate(-49.42 15.74) rotate(-13.8)"/><circle class="cls-7" cx="36.82" cy="212.03" r="18.64" transform="translate(-48.1 14.29) rotate(-13.39)"/><path class="cls-1" d="M31.31,211.61a20.07,20.07,0,0,1,1-6.38A15.82,15.82,0,0,1,35.19,200h2.64a18.34,18.34,0,0,0-2.75,5.42,20.4,20.4,0,0,0-.95,6.15,19.77,19.77,0,0,0,.95,6.08A18.38,18.38,0,0,0,37.8,223H35.19a15.16,15.16,0,0,1-2.88-5.11A19.14,19.14,0,0,1,31.31,211.61Z"/><path class="cls-1" d="M40.32,206.23a1.7,1.7,0,0,1,1.91-1.94,1.85,1.85,0,0,1,1.44.52,2.39,2.39,0,0,1,0,2.87,2.15,2.15,0,0,1-2.84,0A2,2,0,0,1,40.32,206.23Zm0,11a2,2,0,0,1,.49-1.44,1.92,1.92,0,0,1,1.42-.5,1.84,1.84,0,0,1,1.42.52,2,2,0,0,1,.49,1.42,2.05,2.05,0,0,1-.49,1.45,2.18,2.18,0,0,1-2.84,0A2,2,0,0,1,40.32,217.22Z"/><path class="cls-25" d="M317.36,143.55A29.72,29.72,0,1,0,283.85,173l4,12.69h4.64l4-13.77A29.74,29.74,0,0,0,317.36,143.55Z"/><path class="cls-7" d="M312.73,143.55A29.73,29.73,0,1,0,279.21,173l8.63,12.69,4-13.77A29.75,29.75,0,0,0,312.73,143.55Z"/><path class="cls-1" d="M275.47,139.66a5.24,5.24,0,0,1-1.54,4,6.23,6.23,0,0,1-4.38,1.43h-1.19v5.17h-4.21V134.7h5.4A6.61,6.61,0,0,1,274,136,4.62,4.62,0,0,1,275.47,139.66Zm-7.11,2h.77a2.08,2.08,0,0,0,1.51-.53,2,2,0,0,0,.56-1.47c0-1.06-.58-1.58-1.75-1.58h-1.09Z"/><path class="cls-1" d="M291.32,150.29h-4.23v-6.36h-4.9v6.36H278V134.7h4.24v5.78h4.9V134.7h4.23Z"/><path class="cls-1" d="M306,139.66a5.2,5.2,0,0,1-1.54,4,6.23,6.23,0,0,1-4.38,1.43h-1.18v5.17h-4.22V134.7h5.4a6.61,6.61,0,0,1,4.44,1.29A4.59,4.59,0,0,1,306,139.66Zm-7.1,2h.76a2.06,2.06,0,0,0,1.51-.53,1.92,1.92,0,0,0,.56-1.47c0-1.06-.58-1.58-1.74-1.58h-1.09Z"/><path class="cls-25" d="M182.93,26.71H149.17a4.78,4.78,0,0,0-4.79,4.79V65.25A4.78,4.78,0,0,0,149.17,70H166l9.21,12.24h4.87V70h2.82a4.78,4.78,0,0,0,4.78-4.79V31.5A4.78,4.78,0,0,0,182.93,26.71Z"/><path class="cls-7" d="M178.05,26.71H144.3a4.78,4.78,0,0,0-4.79,4.79V65.25A4.78,4.78,0,0,0,144.3,70h16.85l14.09,12.24V70h2.81a4.78,4.78,0,0,0,4.79-4.79V31.5A4.78,4.78,0,0,0,178.05,26.71Z"/><path class="cls-1" d="M176.48,60.05a2.6,2.6,0,0,1,0,3.65h0a2.58,2.58,0,0,1-3.65,0l-7.18-7.18a2.58,2.58,0,0,1,0-3.65h0a2.58,2.58,0,0,1,3.65,0Z"/><path class="cls-1" d="M163.23,50.46a10.09,10.09,0,1,1,0-14.27A10.11,10.11,0,0,1,163.23,50.46ZM150.57,37.8a7.81,7.81,0,1,0,11.05,0A7.83,7.83,0,0,0,150.57,37.8Z"/><rect class="cls-1" x="165.2" y="48.03" width="2.28" height="11.07" transform="translate(10.84 133.31) rotate(-45)"/></g></g></svg>