<svg xmlns="http://www.w3.org/2000/svg" viewBox="0 0 64.91 51.26"><defs><style>.cls-1{fill:#2a169b;}.cls-2{fill:#2494c6;}.cls-3{fill:#3bcee2;}.cls-4{fill:#fff;}.cls-5{fill:#fbf6ed;}.cls-6{fill:#d0c7ab;}.cls-7{fill:#c8c7c9;}.cls-8{fill:#343643;}.cls-9{fill:#f5ead4;}.cls-10{fill:#bf2430;}</style></defs><title>Asset 9</title><g id="Layer_2" data-name="Layer 2"><g id="Layer_1-2" data-name="Layer 1"><path class="cls-1" d="M27.1,51.11c-.5,0-1,0-1.51,0C26.1,51.16,26.6,51.14,27.1,51.11Z"/><path class="cls-2" d="M45.84,41.17c-.23.41-.07.27,1.22-1.72-.32.49-.66,1-1,1.44Z"/><path class="cls-3" d="M47.76,14.57c-.59-.2-1.22-.12-1.81-.29-.35-.1-.34-.31-.34-.62s-.33-.63-.68-.77a2.54,2.54,0,0,1-1.25-1.06c-.2-.34-1-1.49-1.35-.7s-.69,1.43-1.68,1.39a1.61,1.61,0,0,1-1.45-1.59c0-.95,1.28-.9,1.17-1.91S39,7.28,38.11,6.8c0,0-.62-.34-.54-.4.29-.18,1,.13,1.28.26.53.27,1.28,1.4,2,1S40,6,39.71,5.82s-.87-.13-1.13-.45-.22-.7-.35-1a3.38,3.38,0,0,0-2.39-1.6c-.65-.11-1.54-.51-1.61-1.25l-.65-.23c-.79.37-1.52.84-2.31,1.19-.35.16-1,.51-1.42.26-.63-.42.12-1.66-.38-2.19S28.27.48,27.81.47c-.11,0-.54-.14-.61,0s.09.37.14.49c.21.5.17.94-.51.85a2,2,0,0,1-1.25-.9l-1.13.49c.63,1.51-3.29-.09-3.5.67-.06.25.41.55.61.54s.41-.27.52-.17.27.85.29,1.17c0,0,0,.45.07.37.63-.59,1.43-.92,2.07-1.49a2,2,0,0,1,.7-.52c.35-.09.69.25.92.47.83.81,1.77,2,1.64,3.25,0,.19-.11.57-.37.52s-.57-.7-.8-.94c-.5-.5-1.82-1.08-2.22-.14-.26.64.65.95,1.07,1.15.15.07.47.18.51.37s-.54.4-.69.42c-.81.11-1.41-.55-2-1s-.24.44-.05.66c.05.06.26.23.19.33s-.74.18-.93.2a6.39,6.39,0,0,0-3.27,1.15A9.51,9.51,0,0,0,17.49,10l-.1.12a15.21,15.21,0,0,1-.85,2.71c-.22.46-.32.19-.34-.19,0-.88.22-1.94-.34-2.7-1-1.38-3.26.58-4,1.32-.61.59-1.61,1.8-.89,2.67s1.44-.38,2.16-.45a1.32,1.32,0,0,1,.83.18c-.42.39-.88.74-1.3,1.12-.2.18-.33.36,0,.45s.84,0,1.08.32,0,.66-.11.91c-.2.56-.57,1.87,0,2.35.42.36,1.46-.1,1.9-.2,2.19-.48,4.6-.4,5.9,1.7a4,4,0,0,0,.63,1,3.9,3.9,0,0,0,1.12.6,1.57,1.57,0,0,1,.77.51c.25.41-.18.93-.36,1.27-.29.56-.92,1.5-.8,2.19a.2.2,0,0,0,.29.16,9.46,9.46,0,0,1,5,1.53,2,2,0,0,1,1,1.58c0,.95-1,1.54-1.67,2.1a6.05,6.05,0,0,0-2.19,3.4c-.27,1.29-1.47,1.79-2.68,2C21.41,40.33,19,39.74,19,39.74c-.27.68-.68,1.86-1.5,2.06-.34.09-.73-.08-1,.22-.52.62-.28,1.64-.15,2.35.07.39.48,1.73-.19,1.84a1.31,1.31,0,0,1-1.38-.94,8,8,0,0,1-.06-3,10,10,0,0,0-.36-3.73c-.21-.73-.67-1.71-.38-2.47.14-.38.51-.55.78-.84a3.14,3.14,0,0,0,.73-1.44c.17-.7.24-1.79-.4-2.3s-1.57-.63-1.92-1.31c-.22-.42.13-.75.33-1.09a1.81,1.81,0,0,0,.09-1.76c-.41-.84-1.47-1.44-1.68-2.37s1.06-2,1.7-2.62c.48-.47,1-.94,1.41-1.44a4.51,4.51,0,0,0,.87-1.17c.11-.28-.07-.36-.32-.32a4.63,4.63,0,0,1-1.73.21,2.38,2.38,0,0,1-1.33-.71,12.53,12.53,0,0,0-.25-1.61A1,1,0,0,0,12,16.7c-.33-.22-.56-.22-.79-.62a4.32,4.32,0,0,0-.59-1,3.57,3.57,0,0,0-.84-.6c-.54-.31-1-.63-.88-1.32C9,12,9.88,11,10.14,9.83c.08-.34.13-1.29-.43-.74a3.64,3.64,0,0,0-.65,1c-.09.21-.23.56-.46.66s-.1-1-.07-1.08C9.17,7.59,11,6.43,12.6,5.06c.14-.12,1.12-.85,1-1.09a1.77,1.77,0,0,1-1.09-.35,25.56,25.56,0,0,0-12,27.14A25.88,25.88,0,0,0,17.73,49.93a25.57,25.57,0,0,0,28.11-8.76c.27-.51,1.12-1.84,1.22-1.72-.29-.32-.57-.63-1-.41a4,4,0,0,0-1,.85c-.85.92-1.61,1.91-2.51,2.77-.44.42-.92.81-1.34,1.26a5.56,5.56,0,0,1-.86.89c-.63.45-1.09-1.21-1.16-1.57a2.62,2.62,0,0,1,1.06-2.4c.46-.41,1.61-1,1.67-1.65s-.78-1.38-.51-2.1c.16-.43.71-.57,1-.89a2.86,2.86,0,0,0,.62-1.33,3.63,3.63,0,0,1,.31-1.08c.18-.3.52-.5.72-.8a2.17,2.17,0,0,0,.16-2.54c-.23-.25-.72-.4-.82-.75s.21-.47.39-.6c.54-.44,1.21-.91,1-1.71s-.8.12-1.18.09-.37-1.12-.45-1.48-1.42.17-1.62.22c-.8.23-2,.61-2.68-.06a6.3,6.3,0,0,1-1-2.25A14.85,14.85,0,0,0,36.2,21.5c-.44-.65.57-.45,1-.6.75-.29.87-1.19.88-1.9s-.1-1.28-.14-1.92A2.4,2.4,0,0,1,38,15.89c.26-.51,1-.33,1.45-.52s.35-.51.39-.84c.07-.5.4-.59.84-.7A12.25,12.25,0,0,1,43.31,13a.67.67,0,0,1,.71.52c.06.24,0,.79.15,1s.31.06.41.11a4.41,4.41,0,0,1,1.24,1.27c.12.15.35.57.58.59s.47-.31.62-.4c.41-.26,1-.38,1.3-.8S48.06,14.67,47.76,14.57Z"/><path class="cls-2" d="M45.84,41.17l.21-.28c.35-.47.69-1,1-1.44C47,39.33,46.11,40.66,45.84,41.17Z"/><path class="cls-4" d="M2.71,14.13c-.15.29-.29.58-.42.88C2.42,14.71,2.56,14.42,2.71,14.13Z"/><path class="cls-4" d="M2.76,14l0,.09Z"/><path class="cls-4" d="M2.29,15l-.06.14Z"/><path class="cls-4" d="M1.79,16.17c-.13.34-.26.68-.38,1C1.53,16.85,1.66,16.51,1.79,16.17Z"/><path class="cls-4" d="M2.23,15.15c-.13.28-.26.57-.37.87C2,15.72,2.1,15.43,2.23,15.15Z"/><path class="cls-1" d="M2.76,14A25.68,25.68,0,0,1,12.48,3.62,1.77,1.77,0,0,0,13.57,4s.49,0-2.64,2.45-2.85,5.85-1.87,3.71,1.87-1.36.3,1.68.82,2.06,1.63,3.92,1.11-.39,1.5,3.14a2.55,2.55,0,0,0,2.75.59c1.76-.59-.3,1.56-2.16,3.33s-1.27,2.35-.29,3.43,1.37,2,.49,3.13,1.37,1.57,2,2.26a3.23,3.23,0,0,1-.88,3.92c-1.38,1,.68,3.13.38,6.17s-.22,4.31,1.17,4.51-.18-2.65.4-3.92,1.28.88,2.65-2.55c0,0,2.45.59,3.53-3.13,0,0,2.15-.3,2.55-1.47s-.1-2,3-4.51-2.15-4.51-5-4.61c0,0-1,.43.78-2.84.8-1.43-1.57-1.08-2.15-2.35A4.28,4.28,0,0,0,17,18.38c-2.74.29-3.53,1.27-3.62-.4s1.17-2.44-.2-2.64-.69-.3.78-1.67a1.38,1.38,0,0,0-1.76.3c-.88.88-2.45-.49-.59-2.45s4.8-3.44,4.61.29,1.17-1.68,1.17-1.68S19.45,7.5,22,7.3,23,7,23,6.13s1.17,1.47,2.6.88-1.52-.79-1.23-1.76,2-.69,2.65.58,1.47-.68-.3-2.74-1.47-.79-3.13.09-1,1.38-1.28-.09-.39.09-1.17-.69,1.4-.42,2.55-.29.78-.69.78-.69L25.58.93s.73,1.08,1.61.88-.58-1.57.3-1.37,2.05-.59,2.15.59S29,3.78,32.19,2c.66-.36,1.09-.59,1.39-.73a25.83,25.83,0,0,0-8-1.28A25.56,25.56,0,0,0,2.76,14Z"/><path class="cls-4" d="M1.86,16a1,1,0,0,0-.07.15A1,1,0,0,1,1.86,16Z"/><path class="cls-5" d="M34.23,1.52a1,1,0,0,0,.51.78c1.27.79.88.1,2.55,1.08s.59,2.06,1.86,2.26,2.45,2,1.47,2.05-1.08-1.07-2.55-1.27.59.49,1.57,1.37,1,1.93,0,2.34S39.39,12.79,41,12.5s1-2,1.89-1.57.59,1.37,2.06,2-.2,1.37,1.57,1.47,2.65.78,1.08,1.47-.78,1.27-2.16-.4-1.23-.06-1.37-1.66-2.35-.1-3.53.1-.19,1.37-1.27,1.56-1.57-.09-1.28,2.46S37.58,21,36.4,21s1,1.37,1.57,3.14.69,2.84,3.24,2.16,1.76-.69,2.06.68,1.37-.78,1.56.59-2.44,1.67-1,2.55.4,2.94-.29,3.43-.2,2.25-1.66,3,.68,2.15-.2,3-3.24,2-2.35,4.11.88.88,2.74-.69,3.43-4.21,4.32-4.11c.31,0,.46.28.65.49a25.73,25.73,0,0,1-11.93,9.86,25.57,25.57,0,0,0-.9-47.79Z"/><path class="cls-4" d="M33.8,1.36l.43.16h0Z"/><path class="cls-6" d="M38.65,47.56l-.19.1h0Z"/><path class="cls-6" d="M44.63,42.62l-.06.07h0Z"/><path class="cls-6" d="M44.54,42.71h0c-.36.39-.73.78-1.11,1.15C43.81,43.5,44.18,43.11,44.54,42.71Z"/><path class="cls-6" d="M36.34,48.76c-.4.19-.8.38-1.21.55.41-.17.81-.36,1.21-.55Z"/><path class="cls-6" d="M38.34,47.73h0c-.41.24-.83.48-1.26.69C37.5,48.21,37.92,48,38.34,47.73Z"/><rect class="cls-7" x="33.37" y="10.24" width="29.17" height="41.02"/><path class="cls-8" d="M62.11,23.44H33.8A2.59,2.59,0,0,1,31,21.12V15.85a2.59,2.59,0,0,1,2.8-2.32H62.11a2.59,2.59,0,0,1,2.8,2.32v5.27A2.59,2.59,0,0,1,62.11,23.44Z"/><path class="cls-8" d="M62.11,35.73H33.8A2.59,2.59,0,0,1,31,33.42V28.15a2.59,2.59,0,0,1,2.8-2.32H62.11a2.59,2.59,0,0,1,2.8,2.32v5.27A2.59,2.59,0,0,1,62.11,35.73Z"/><path class="cls-8" d="M62.11,48H33.8A2.59,2.59,0,0,1,31,45.71V40.44a2.59,2.59,0,0,1,2.8-2.31H62.11a2.59,2.59,0,0,1,2.8,2.31v5.27A2.59,2.59,0,0,1,62.11,48Z"/><path class="cls-9" d="M56.92,17.55a1.23,1.23,0,1,1-1.23-1.23A1.23,1.23,0,0,1,56.92,17.55Z"/><path class="cls-10" d="M60.54,17.55a1.23,1.23,0,1,1-1.22-1.23A1.22,1.22,0,0,1,60.54,17.55Z"/><path class="cls-9" d="M56.92,29a1.23,1.23,0,1,1-1.23-1.23A1.23,1.23,0,0,1,56.92,29Z"/><path class="cls-10" d="M60.54,29a1.23,1.23,0,1,1-1.22-1.23A1.23,1.23,0,0,1,60.54,29Z"/><path class="cls-9" d="M56.92,40.45a1.23,1.23,0,1,1-1.23-1.23A1.23,1.23,0,0,1,56.92,40.45Z"/><path class="cls-10" d="M60.54,40.45a1.23,1.23,0,1,1-1.22-1.23A1.23,1.23,0,0,1,60.54,40.45Z"/></g></g></svg>